<svg xmlns="http://www.w3.org/2000/svg" viewBox="0 0 1000 750" role="img" aria-labelledby="title desc">
  <title id="title">Explain communication trade-offs result build</title>
  <desc id="desc">A tactile workbench-style result image for Explain communication trade-offs.</desc>
  <defs>
    <linearGradient id="bench" x1="0" x2="1" y1="0" y2="1">
      <stop offset="0" stop-color="#f4dfbd"/>
      <stop offset="1" stop-color="#d3a36c"/>
    </linearGradient>
    <linearGradient id="paper" x1="0" x2="0" y1="0" y2="1">
      <stop offset="0" stop-color="#fffaf0"/>
      <stop offset="1" stop-color="#f2e4cf"/>
    </linearGradient>
    <linearGradient id="metal" x1="0" x2="1">
      <stop offset="0" stop-color="#dce5e6"/>
      <stop offset="0.5" stop-color="#9eaeb2"/>
      <stop offset="1" stop-color="#eef4f4"/>
    </linearGradient>
    <filter id="softShadow" x="-20%" y="-20%" width="140%" height="150%">
      <feDropShadow dx="10" dy="12" stdDeviation="5" flood-color="#24211f" flood-opacity="0.22"/>
    </filter>
    <pattern id="grain" width="42" height="42" patternUnits="userSpaceOnUse">
      <path d="M0 12h42M18 0v42" stroke="#9b6e3f" stroke-width="2" opacity="0.08"/>
    </pattern>
  </defs>
  <rect width="1000" height="750" fill="url(#bench)"/>
  <rect width="1000" height="750" fill="url(#grain)"/>
  <circle cx="181" cy="112" r="42" fill="#0e7c86" opacity="0.16"/>
  <circle cx="631" cy="134" r="32" fill="#0e7c86" opacity="0.22"/>
  <path d="M76 594c194 50 424 52 846 8" stroke="#7a5633" stroke-width="18" stroke-linecap="round" opacity="0.12"/>
  
  <rect x="86" y="170" width="828" height="388" rx="18" fill="#e7cfad" filter="url(#softShadow)"/>
  <path d="M112 198h776" stroke="#b77f46" stroke-width="3" stroke-linecap="round" opacity="0.28"/>
  <path d="M108 528h784" stroke="#8f6238" stroke-width="4" stroke-linecap="round" opacity="0.18"/>
  <rect x="124" y="205" width="752" height="312" rx="22" fill="url(#paper)" opacity="0.64"/>
  
  <g transform="translate(106 270) scale(1.08)">
    <rect x="30" y="102" width="170" height="110" rx="18" fill="#0e7c86" stroke="#24211f" stroke-width="7" filter="url(#softShadow)"/>
    <circle cx="82" cy="158" r="28" fill="#f4be38" stroke="#24211f" stroke-width="6"/>
    <rect x="126" y="138" width="48" height="38" rx="8" fill="#fffaf0"/>
    <path d="M180 104L248 30" stroke="#24211f" stroke-width="9" stroke-linecap="round"/>
    <path d="M266 68c34 20 54 50 60 88M310 38c52 34 82 82 90 142" stroke="#315eaa" stroke-width="9" fill="none" stroke-linecap="round" opacity="0.95"/>
    <rect x="348" y="128" width="98" height="78" rx="16" fill="#fffaf0" stroke="#24211f" stroke-width="7" filter="url(#softShadow)"/>
    <circle cx="398" cy="168" r="18" fill="#f15f45"/>
  </g>

  <g transform="translate(596 348) scale(0.58)">
    <rect x="0" y="96" width="310" height="58" rx="16" fill="#fffaf0" stroke="#24211f" stroke-width="7" filter="url(#softShadow)"/>
    <circle cx="35" cy="125" r="18" fill="#f15f45"/><circle cx="88" cy="125" r="18" fill="#f4be38"/><circle cx="141" cy="125" r="18" fill="#3e8f58"/><circle cx="194" cy="125" r="18" fill="#0e7c86"/><circle cx="247" cy="125" r="18" fill="#315eaa"/>
    <path d="M310 126c50 0 82 22 116 52" stroke="#d54a3a" stroke-width="8" fill="none" stroke-linecap="round"/>
  </g>
  <path d="M128 604h744" stroke="#24211f" stroke-width="8" stroke-linecap="round" opacity="0.22"/>
</svg>
