<svg xmlns="http://www.w3.org/2000/svg" viewBox="0 0 1000 750" role="img" aria-labelledby="title desc">
  <title id="title">Improve input reliability result build</title>
  <desc id="desc">A tactile workbench-style result image for Improve input reliability.</desc>
  <defs>
    <linearGradient id="bench" x1="0" x2="1" y1="0" y2="1">
      <stop offset="0" stop-color="#f4dfbd"/>
      <stop offset="1" stop-color="#d3a36c"/>
    </linearGradient>
    <linearGradient id="paper" x1="0" x2="0" y1="0" y2="1">
      <stop offset="0" stop-color="#fffaf0"/>
      <stop offset="1" stop-color="#f2e4cf"/>
    </linearGradient>
    <linearGradient id="metal" x1="0" x2="1">
      <stop offset="0" stop-color="#dce5e6"/>
      <stop offset="0.5" stop-color="#9eaeb2"/>
      <stop offset="1" stop-color="#eef4f4"/>
    </linearGradient>
    <filter id="softShadow" x="-20%" y="-20%" width="140%" height="150%">
      <feDropShadow dx="10" dy="12" stdDeviation="5" flood-color="#24211f" flood-opacity="0.22"/>
    </filter>
    <pattern id="grain" width="42" height="42" patternUnits="userSpaceOnUse">
      <path d="M0 12h42M18 0v42" stroke="#9b6e3f" stroke-width="2" opacity="0.08"/>
    </pattern>
  </defs>
  <rect width="1000" height="750" fill="url(#bench)"/>
  <rect width="1000" height="750" fill="url(#grain)"/>
  <circle cx="207" cy="112" r="42" fill="#f15f45" opacity="0.16"/>
  <circle cx="695" cy="134" r="32" fill="#f15f45" opacity="0.22"/>
  <path d="M76 594c194 50 424 52 846 8" stroke="#7a5633" stroke-width="18" stroke-linecap="round" opacity="0.12"/>
  
  <rect x="86" y="170" width="828" height="388" rx="18" fill="#e7cfad" filter="url(#softShadow)"/>
  <path d="M112 198h776" stroke="#b77f46" stroke-width="3" stroke-linecap="round" opacity="0.28"/>
  <path d="M108 528h784" stroke="#8f6238" stroke-width="4" stroke-linecap="round" opacity="0.18"/>
  <rect x="124" y="205" width="752" height="312" rx="22" fill="url(#paper)" opacity="0.64"/>
  
  <g transform="translate(108 276) scale(1.05)">
    <rect x="0" y="42" width="310" height="180" rx="20" fill="#e7cfad" stroke="#24211f" stroke-width="7" filter="url(#softShadow)"/>
    <circle cx="72" cy="132" r="42" fill="#f15f45" stroke="#24211f" stroke-width="8"/>
    <circle cx="72" cy="126" r="25" fill="#ff8b75"/>
    <rect x="140" y="92" width="90" height="38" rx="19" fill="#24211f"/>
    <circle cx="162" cy="111" r="28" fill="#f4be38" stroke="#24211f" stroke-width="7"/>
    <circle cx="256" cy="132" r="32" fill="#0e7c86" stroke="#24211f" stroke-width="7"/>
    <path d="M256 132l20-24" stroke="#fffaf0" stroke-width="8" stroke-linecap="round"/>
  </g>

  <g transform="translate(502 294) scale(0.62)">
    <rect x="0" y="108" width="360" height="134" rx="20" fill="#d9b47e" filter="url(#softShadow)"/>
    <rect x="34" y="52" width="150" height="112" rx="16" fill="#f15f45" stroke="#24211f" stroke-width="7"/>
    <circle cx="82" cy="108" r="26" fill="#1b2325"/>
    <circle cx="82" cy="108" r="12" fill="#7dd0ff" opacity="0.88"/>
    <circle cx="136" cy="108" r="20" fill="#fffaf0" stroke="#24211f" stroke-width="5"/>
    <path d="M188 114c58 4 102 28 136 70" stroke="#d54a3a" stroke-width="8" fill="none" stroke-linecap="round"/>
    <path d="M188 144c52 2 88 20 128 50" stroke="#24211f" stroke-width="8" fill="none" stroke-linecap="round"/>
    <circle cx="316" cy="190" r="28" fill="#f4be38" stroke="#24211f" stroke-width="7"/>
  </g>
  <path d="M128 604h744" stroke="#24211f" stroke-width="8" stroke-linecap="round" opacity="0.22"/>
</svg>
