<svg xmlns="http://www.w3.org/2000/svg" viewBox="0 0 1000 750" role="img" aria-labelledby="title desc">
  <title id="title">Build a repeatable test rig result build</title>
  <desc id="desc">A tactile workbench-style result image for Build a repeatable test rig.</desc>
  <defs>
    <linearGradient id="bench" x1="0" x2="1" y1="0" y2="1">
      <stop offset="0" stop-color="#f4dfbd"/>
      <stop offset="1" stop-color="#d3a36c"/>
    </linearGradient>
    <linearGradient id="paper" x1="0" x2="0" y1="0" y2="1">
      <stop offset="0" stop-color="#fffaf0"/>
      <stop offset="1" stop-color="#f2e4cf"/>
    </linearGradient>
    <linearGradient id="metal" x1="0" x2="1">
      <stop offset="0" stop-color="#dce5e6"/>
      <stop offset="0.5" stop-color="#9eaeb2"/>
      <stop offset="1" stop-color="#eef4f4"/>
    </linearGradient>
    <filter id="softShadow" x="-20%" y="-20%" width="140%" height="150%">
      <feDropShadow dx="10" dy="12" stdDeviation="5" flood-color="#24211f" flood-opacity="0.22"/>
    </filter>
    <pattern id="grain" width="42" height="42" patternUnits="userSpaceOnUse">
      <path d="M0 12h42M18 0v42" stroke="#9b6e3f" stroke-width="2" opacity="0.08"/>
    </pattern>
  </defs>
  <rect width="1000" height="750" fill="url(#bench)"/>
  <rect width="1000" height="750" fill="url(#grain)"/>
  <circle cx="204" cy="112" r="42" fill="#b94b3f" opacity="0.16"/>
  <circle cx="668" cy="134" r="32" fill="#3e8f58" opacity="0.22"/>
  <path d="M76 594c194 50 424 52 846 8" stroke="#7a5633" stroke-width="18" stroke-linecap="round" opacity="0.12"/>
  
  <rect x="86" y="170" width="828" height="388" rx="18" fill="#e7cfad" filter="url(#softShadow)"/>
  <path d="M112 198h776" stroke="#b77f46" stroke-width="3" stroke-linecap="round" opacity="0.28"/>
  <path d="M108 528h784" stroke="#8f6238" stroke-width="4" stroke-linecap="round" opacity="0.18"/>
  <rect x="124" y="205" width="752" height="312" rx="22" fill="url(#paper)" opacity="0.64"/>
  
  <g transform="translate(104 284) scale(1.1)">
    <rect x="0" y="142" width="420" height="70" rx="14" fill="#c99a62" filter="url(#softShadow)"/>
    <rect x="42" y="86" width="134" height="78" rx="14" fill="#fffaf0" stroke="#24211f" stroke-width="7"/>
    <circle cx="104" cy="126" r="24" fill="#b9c4c8" stroke="#24211f" stroke-width="6"/>
    <path d="M126 146l54 46" stroke="#24211f" stroke-width="10" stroke-linecap="round"/>
    <rect x="226" y="58" width="144" height="104" rx="18" fill="#b94b3f" stroke="#24211f" stroke-width="7"/>
    <circle cx="272" cy="110" r="14" fill="#f4be38"/>
    <circle cx="324" cy="110" r="14" fill="#3e8f58"/>
    <path d="M260 162c-48 30-96 28-142 0" stroke="#d54a3a" stroke-width="8" fill="none" stroke-linecap="round"/>
    <path d="M334 162c34 30 58 36 86 14" stroke="#24211f" stroke-width="8" fill="none" stroke-linecap="round"/>
  </g>

  <g transform="translate(574 354) scale(0.52)" fill="none" stroke="#24211f" stroke-width="14" stroke-linecap="round" stroke-linejoin="round" filter="url(#softShadow)">
    <path d="M0 190h430"/>
    <path d="M26 190L96 72l78 118l82-118l82 118l66-118"/>
    <path d="M96 72h308"/>
    <path d="M96 72L174 190M174 190L256 72M256 72L338 190M338 190L404 72" stroke="#315eaa"/>
    <path d="M28 206h374" stroke="#c77c38" stroke-width="22"/>
  </g>
  <path d="M128 604h744" stroke="#24211f" stroke-width="8" stroke-linecap="round" opacity="0.22"/>
</svg>
