<svg xmlns="http://www.w3.org/2000/svg" viewBox="0 0 1000 750" role="img" aria-labelledby="title desc">
  <title id="title">Sketch two quick ideas result build</title>
  <desc id="desc">A tactile workbench-style result image for Sketch two quick ideas.</desc>
  <defs>
    <linearGradient id="bench" x1="0" x2="1" y1="0" y2="1">
      <stop offset="0" stop-color="#f4dfbd"/>
      <stop offset="1" stop-color="#d3a36c"/>
    </linearGradient>
    <linearGradient id="paper" x1="0" x2="0" y1="0" y2="1">
      <stop offset="0" stop-color="#fffaf0"/>
      <stop offset="1" stop-color="#f2e4cf"/>
    </linearGradient>
    <linearGradient id="metal" x1="0" x2="1">
      <stop offset="0" stop-color="#dce5e6"/>
      <stop offset="0.5" stop-color="#9eaeb2"/>
      <stop offset="1" stop-color="#eef4f4"/>
    </linearGradient>
    <filter id="softShadow" x="-20%" y="-20%" width="140%" height="150%">
      <feDropShadow dx="10" dy="12" stdDeviation="5" flood-color="#24211f" flood-opacity="0.22"/>
    </filter>
    <pattern id="grain" width="42" height="42" patternUnits="userSpaceOnUse">
      <path d="M0 12h42M18 0v42" stroke="#9b6e3f" stroke-width="2" opacity="0.08"/>
    </pattern>
  </defs>
  <rect width="1000" height="750" fill="url(#bench)"/>
  <rect width="1000" height="750" fill="url(#grain)"/>
  <circle cx="191" cy="112" r="42" fill="#3e8f58" opacity="0.16"/>
  <circle cx="681" cy="134" r="32" fill="#0e7c86" opacity="0.22"/>
  <path d="M76 594c194 50 424 52 846 8" stroke="#7a5633" stroke-width="18" stroke-linecap="round" opacity="0.12"/>
  
  <rect x="86" y="170" width="828" height="388" rx="18" fill="#e7cfad" filter="url(#softShadow)"/>
  <path d="M112 198h776" stroke="#b77f46" stroke-width="3" stroke-linecap="round" opacity="0.28"/>
  <path d="M108 528h784" stroke="#8f6238" stroke-width="4" stroke-linecap="round" opacity="0.18"/>
  <rect x="124" y="205" width="752" height="312" rx="22" fill="url(#paper)" opacity="0.64"/>
  
  <g transform="translate(104 264) scale(1.14)">
    <rect x="0" y="42" width="230" height="168" rx="18" fill="#fffaf0" stroke="#24211f" stroke-width="7" filter="url(#softShadow)"/>
    <path d="M34 100c46-38 92-36 138 0M54 152h122M58 176h84" stroke="#315eaa" stroke-width="8" fill="none" stroke-linecap="round" opacity="0.72"/>
    <path d="M262 178l80-84l86 84z" fill="#e7cfad" stroke="#24211f" stroke-width="7" filter="url(#softShadow)"/>
    <circle cx="342" cy="160" r="26" fill="#f15f45" stroke="#24211f" stroke-width="7"/>
    <path d="M296 94l118 0" stroke="#3e8f58" stroke-width="12" stroke-linecap="round"/>
  </g>

  <g transform="translate(584 332) scale(0.58)">
    <path d="M20 168l180-80l186 64l-180 86z" fill="#c99a62" stroke="#24211f" stroke-width="7" filter="url(#softShadow)"/>
    <path d="M200 88v150M20 168l186 64M386 152l-180 86" stroke="#9b6e3f" stroke-width="5" opacity="0.42"/>
    <rect x="72" y="48" width="140" height="42" rx="10" fill="#f4be38" stroke="#24211f" stroke-width="6" transform="rotate(-10 142 69)"/>
    <path d="M252 72l106 38" stroke="#315eaa" stroke-width="11" stroke-linecap="round"/>
    <path d="M356 110l-26 18" stroke="#24211f" stroke-width="9" stroke-linecap="round"/>
  </g>
  <path d="M128 604h744" stroke="#24211f" stroke-width="8" stroke-linecap="round" opacity="0.22"/>
</svg>
