<svg xmlns="http://www.w3.org/2000/svg" viewBox="0 0 1000 750" role="img" aria-labelledby="title desc">
  <title id="title">Use an if-then rule result build</title>
  <desc id="desc">A tactile workbench-style result image for Use an if-then rule.</desc>
  <defs>
    <linearGradient id="bench" x1="0" x2="1" y1="0" y2="1">
      <stop offset="0" stop-color="#f4dfbd"/>
      <stop offset="1" stop-color="#d3a36c"/>
    </linearGradient>
    <linearGradient id="paper" x1="0" x2="0" y1="0" y2="1">
      <stop offset="0" stop-color="#fffaf0"/>
      <stop offset="1" stop-color="#f2e4cf"/>
    </linearGradient>
    <linearGradient id="metal" x1="0" x2="1">
      <stop offset="0" stop-color="#dce5e6"/>
      <stop offset="0.5" stop-color="#9eaeb2"/>
      <stop offset="1" stop-color="#eef4f4"/>
    </linearGradient>
    <filter id="softShadow" x="-20%" y="-20%" width="140%" height="150%">
      <feDropShadow dx="10" dy="12" stdDeviation="5" flood-color="#24211f" flood-opacity="0.22"/>
    </filter>
    <pattern id="grain" width="42" height="42" patternUnits="userSpaceOnUse">
      <path d="M0 12h42M18 0v42" stroke="#9b6e3f" stroke-width="2" opacity="0.08"/>
    </pattern>
  </defs>
  <rect width="1000" height="750" fill="url(#bench)"/>
  <rect width="1000" height="750" fill="url(#grain)"/>
  <circle cx="213" cy="112" r="42" fill="#7d5fb2" opacity="0.16"/>
  <circle cx="629" cy="134" r="32" fill="#f4be38" opacity="0.22"/>
  <path d="M76 594c194 50 424 52 846 8" stroke="#7a5633" stroke-width="18" stroke-linecap="round" opacity="0.12"/>
  
  <rect x="86" y="170" width="828" height="388" rx="18" fill="#e7cfad" filter="url(#softShadow)"/>
  <path d="M112 198h776" stroke="#b77f46" stroke-width="3" stroke-linecap="round" opacity="0.28"/>
  <path d="M108 528h784" stroke="#8f6238" stroke-width="4" stroke-linecap="round" opacity="0.18"/>
  <rect x="124" y="205" width="752" height="312" rx="22" fill="url(#paper)" opacity="0.64"/>
  
  <g transform="translate(96 300) scale(1.08)">
    <rect x="0" y="82" width="110" height="76" rx="16" fill="#fffaf0" stroke="#24211f" stroke-width="7" filter="url(#softShadow)"/>
    <rect x="168" y="82" width="110" height="76" rx="16" fill="#f4be38" stroke="#24211f" stroke-width="7" filter="url(#softShadow)"/>
    <rect x="336" y="82" width="110" height="76" rx="16" fill="#fffaf0" stroke="#24211f" stroke-width="7" filter="url(#softShadow)"/>
    <path d="M118 120h40M152 104l22 16l-22 16M286 120h40M320 104l22 16l-22 16" stroke="#0e7c86" stroke-width="10" stroke-linecap="round" stroke-linejoin="round"/>
    <circle cx="54" cy="120" r="18" fill="#f15f45"/>
    <path d="M206 120h34" stroke="#24211f" stroke-width="9" stroke-linecap="round"/>
    <path d="M390 102v38h32" stroke="#24211f" stroke-width="8" stroke-linecap="round" fill="none"/>
  </g>

  <g transform="translate(590 348) scale(0.55)">
    <rect x="0" y="96" width="310" height="58" rx="16" fill="#fffaf0" stroke="#24211f" stroke-width="7" filter="url(#softShadow)"/>
    <circle cx="35" cy="125" r="18" fill="#f15f45"/><circle cx="88" cy="125" r="18" fill="#f4be38"/><circle cx="141" cy="125" r="18" fill="#3e8f58"/><circle cx="194" cy="125" r="18" fill="#0e7c86"/><circle cx="247" cy="125" r="18" fill="#315eaa"/>
    <path d="M310 126c50 0 82 22 116 52" stroke="#d54a3a" stroke-width="8" fill="none" stroke-linecap="round"/>
  </g>
  <path d="M128 604h744" stroke="#24211f" stroke-width="8" stroke-linecap="round" opacity="0.22"/>
</svg>
