<svg xmlns="http://www.w3.org/2000/svg" viewBox="0 0 1000 750" role="img" aria-labelledby="title desc">
  <title id="title">Make a clean cardboard hinge result build</title>
  <desc id="desc">A tactile workbench-style result image for Make a clean cardboard hinge.</desc>
  <defs>
    <linearGradient id="bench" x1="0" x2="1" y1="0" y2="1">
      <stop offset="0" stop-color="#f4dfbd"/>
      <stop offset="1" stop-color="#d3a36c"/>
    </linearGradient>
    <linearGradient id="paper" x1="0" x2="0" y1="0" y2="1">
      <stop offset="0" stop-color="#fffaf0"/>
      <stop offset="1" stop-color="#f2e4cf"/>
    </linearGradient>
    <linearGradient id="metal" x1="0" x2="1">
      <stop offset="0" stop-color="#dce5e6"/>
      <stop offset="0.5" stop-color="#9eaeb2"/>
      <stop offset="1" stop-color="#eef4f4"/>
    </linearGradient>
    <filter id="softShadow" x="-20%" y="-20%" width="140%" height="150%">
      <feDropShadow dx="10" dy="12" stdDeviation="5" flood-color="#24211f" flood-opacity="0.22"/>
    </filter>
    <pattern id="grain" width="42" height="42" patternUnits="userSpaceOnUse">
      <path d="M0 12h42M18 0v42" stroke="#9b6e3f" stroke-width="2" opacity="0.08"/>
    </pattern>
  </defs>
  <rect width="1000" height="750" fill="url(#bench)"/>
  <rect width="1000" height="750" fill="url(#grain)"/>
  <circle cx="125" cy="112" r="42" fill="#c77c38" opacity="0.16"/>
  <circle cx="657" cy="134" r="32" fill="#315eaa" opacity="0.22"/>
  <path d="M76 594c194 50 424 52 846 8" stroke="#7a5633" stroke-width="18" stroke-linecap="round" opacity="0.12"/>
  
  <rect x="86" y="170" width="828" height="388" rx="18" fill="#e7cfad" filter="url(#softShadow)"/>
  <path d="M112 198h776" stroke="#b77f46" stroke-width="3" stroke-linecap="round" opacity="0.28"/>
  <path d="M108 528h784" stroke="#8f6238" stroke-width="4" stroke-linecap="round" opacity="0.18"/>
  <rect x="124" y="205" width="752" height="312" rx="22" fill="url(#paper)" opacity="0.64"/>
  
  <g transform="translate(96 260) scale(1.18)">
    <path d="M20 168l180-80l186 64l-180 86z" fill="#c99a62" stroke="#24211f" stroke-width="7" filter="url(#softShadow)"/>
    <path d="M200 88v150M20 168l186 64M386 152l-180 86" stroke="#9b6e3f" stroke-width="5" opacity="0.42"/>
    <rect x="72" y="48" width="140" height="42" rx="10" fill="#f4be38" stroke="#24211f" stroke-width="6" transform="rotate(-10 142 69)"/>
    <path d="M252 72l106 38" stroke="#315eaa" stroke-width="11" stroke-linecap="round"/>
    <path d="M356 110l-26 18" stroke="#24211f" stroke-width="9" stroke-linecap="round"/>
  </g>

  <g transform="translate(564 344) scale(0.5)">
    <rect x="34" y="92" width="146" height="108" rx="18" fill="#315eaa" filter="url(#softShadow)"/>
    <rect x="58" y="114" width="82" height="40" rx="8" fill="#dbe8f0" opacity="0.92"/>
    <circle cx="180" cy="146" r="22" fill="#f4be38" stroke="#24211f" stroke-width="7"/>
    <path d="M180 146L320 86" stroke="#24211f" stroke-width="12" stroke-linecap="round"/>
    <path d="M320 86L432 166" stroke="#c77c38" stroke-width="22" stroke-linecap="round"/>
    <circle cx="320" cy="86" r="16" fill="#fffaf0" stroke="#24211f" stroke-width="6"/>
    <circle cx="432" cy="166" r="18" fill="#fffaf0" stroke="#24211f" stroke-width="6"/>
  </g>
  <path d="M128 604h744" stroke="#24211f" stroke-width="8" stroke-linecap="round" opacity="0.22"/>
</svg>
