<svg xmlns="http://www.w3.org/2000/svg" viewBox="0 0 1000 750" role="img" aria-labelledby="title desc">
  <title id="title">Explain motion trade-offs result build</title>
  <desc id="desc">A tactile workbench-style result image for Explain motion trade-offs.</desc>
  <defs>
    <linearGradient id="bench" x1="0" x2="1" y1="0" y2="1">
      <stop offset="0" stop-color="#f4dfbd"/>
      <stop offset="1" stop-color="#d3a36c"/>
    </linearGradient>
    <linearGradient id="paper" x1="0" x2="0" y1="0" y2="1">
      <stop offset="0" stop-color="#fffaf0"/>
      <stop offset="1" stop-color="#f2e4cf"/>
    </linearGradient>
    <linearGradient id="metal" x1="0" x2="1">
      <stop offset="0" stop-color="#dce5e6"/>
      <stop offset="0.5" stop-color="#9eaeb2"/>
      <stop offset="1" stop-color="#eef4f4"/>
    </linearGradient>
    <filter id="softShadow" x="-20%" y="-20%" width="140%" height="150%">
      <feDropShadow dx="10" dy="12" stdDeviation="5" flood-color="#24211f" flood-opacity="0.22"/>
    </filter>
    <pattern id="grain" width="42" height="42" patternUnits="userSpaceOnUse">
      <path d="M0 12h42M18 0v42" stroke="#9b6e3f" stroke-width="2" opacity="0.08"/>
    </pattern>
  </defs>
  <rect width="1000" height="750" fill="url(#bench)"/>
  <rect width="1000" height="750" fill="url(#grain)"/>
  <circle cx="192" cy="112" r="42" fill="#0e7c86" opacity="0.16"/>
  <circle cx="620" cy="134" r="32" fill="#f15f45" opacity="0.22"/>
  <path d="M76 594c194 50 424 52 846 8" stroke="#7a5633" stroke-width="18" stroke-linecap="round" opacity="0.12"/>
  
  <rect x="86" y="170" width="828" height="388" rx="18" fill="#e7cfad" filter="url(#softShadow)"/>
  <path d="M112 198h776" stroke="#b77f46" stroke-width="3" stroke-linecap="round" opacity="0.28"/>
  <path d="M108 528h784" stroke="#8f6238" stroke-width="4" stroke-linecap="round" opacity="0.18"/>
  <rect x="124" y="205" width="752" height="312" rx="22" fill="url(#paper)" opacity="0.64"/>
  
  <g transform="translate(92 268) scale(0.82)">
    <rect x="92" y="76" width="180" height="118" rx="18" fill="#b9c4c8" filter="url(#softShadow)"/>
    <rect x="116" y="98" width="132" height="74" rx="10" fill="url(#metal)"/>
    <circle cx="92" cy="136" r="72" fill="#24211f" filter="url(#softShadow)"/>
    <circle cx="92" cy="136" r="51" fill="#f4be38"/>
    <circle cx="92" cy="136" r="17" fill="#d9d0bf" stroke="#24211f" stroke-width="7"/>
    <path d="M92 87v98M43 136h98M58 102l69 69M126 102l-69 69" stroke="#24211f" stroke-width="8" stroke-linecap="round" opacity="0.62"/>
    <path d="M270 119c52 4 76 24 103 50" stroke="#d54a3a" stroke-width="8" fill="none" stroke-linecap="round"/>
    <path d="M270 154c58 2 87 24 116 54" stroke="#24211f" stroke-width="8" fill="none" stroke-linecap="round"/>
  </g>

  <g transform="translate(424 292) scale(0.78)">
    <rect x="34" y="92" width="146" height="108" rx="18" fill="#315eaa" filter="url(#softShadow)"/>
    <rect x="58" y="114" width="82" height="40" rx="8" fill="#dbe8f0" opacity="0.92"/>
    <circle cx="180" cy="146" r="22" fill="#f4be38" stroke="#24211f" stroke-width="7"/>
    <path d="M180 146L320 86" stroke="#24211f" stroke-width="12" stroke-linecap="round"/>
    <path d="M320 86L432 166" stroke="#c77c38" stroke-width="22" stroke-linecap="round"/>
    <circle cx="320" cy="86" r="16" fill="#fffaf0" stroke="#24211f" stroke-width="6"/>
    <circle cx="432" cy="166" r="18" fill="#fffaf0" stroke="#24211f" stroke-width="6"/>
  </g>
  <path d="M128 604h744" stroke="#24211f" stroke-width="8" stroke-linecap="round" opacity="0.22"/>
</svg>
