<svg xmlns="http://www.w3.org/2000/svg" viewBox="0 0 1000 750" role="img" aria-labelledby="title desc">
  <title id="title">Sort cells and holders safely result build</title>
  <desc id="desc">A tactile workbench-style result image for Sort cells and holders safely.</desc>
  <defs>
    <linearGradient id="bench" x1="0" x2="1" y1="0" y2="1">
      <stop offset="0" stop-color="#f4dfbd"/>
      <stop offset="1" stop-color="#d3a36c"/>
    </linearGradient>
    <linearGradient id="paper" x1="0" x2="0" y1="0" y2="1">
      <stop offset="0" stop-color="#fffaf0"/>
      <stop offset="1" stop-color="#f2e4cf"/>
    </linearGradient>
    <linearGradient id="metal" x1="0" x2="1">
      <stop offset="0" stop-color="#dce5e6"/>
      <stop offset="0.5" stop-color="#9eaeb2"/>
      <stop offset="1" stop-color="#eef4f4"/>
    </linearGradient>
    <filter id="softShadow" x="-20%" y="-20%" width="140%" height="150%">
      <feDropShadow dx="10" dy="12" stdDeviation="5" flood-color="#24211f" flood-opacity="0.22"/>
    </filter>
    <pattern id="grain" width="42" height="42" patternUnits="userSpaceOnUse">
      <path d="M0 12h42M18 0v42" stroke="#9b6e3f" stroke-width="2" opacity="0.08"/>
    </pattern>
  </defs>
  <rect width="1000" height="750" fill="url(#bench)"/>
  <rect width="1000" height="750" fill="url(#grain)"/>
  <circle cx="187" cy="112" r="42" fill="#f4be38" opacity="0.16"/>
  <circle cx="625" cy="134" r="32" fill="#f15f45" opacity="0.22"/>
  <path d="M76 594c194 50 424 52 846 8" stroke="#7a5633" stroke-width="18" stroke-linecap="round" opacity="0.12"/>
  
  <rect x="86" y="170" width="828" height="388" rx="18" fill="#e7cfad" filter="url(#softShadow)"/>
  <path d="M112 198h776" stroke="#b77f46" stroke-width="3" stroke-linecap="round" opacity="0.28"/>
  <path d="M108 528h784" stroke="#8f6238" stroke-width="4" stroke-linecap="round" opacity="0.18"/>
  <rect x="124" y="205" width="752" height="312" rx="22" fill="url(#paper)" opacity="0.64"/>
  
  <g transform="translate(116 286) scale(1.18)">
    <rect x="0" y="18" width="170" height="76" rx="13" fill="#2b2f34" filter="url(#softShadow)"/>
    <rect x="156" y="39" width="18" height="34" rx="4" fill="#2b2f34"/>
    <rect x="18" y="30" width="55" height="52" rx="9" fill="#f4be38"/>
    <rect x="82" y="30" width="55" height="52" rx="9" fill="#f0d9ad"/>
    <path d="M30 56h30M45 41v30" stroke="#24211f" stroke-width="6" stroke-linecap="round"/>
    <path d="M94 56h30" stroke="#24211f" stroke-width="6" stroke-linecap="round"/>
  </g>

  <g transform="translate(486 314) scale(0.62)">
    <rect x="92" y="76" width="180" height="118" rx="18" fill="#b9c4c8" filter="url(#softShadow)"/>
    <rect x="116" y="98" width="132" height="74" rx="10" fill="url(#metal)"/>
    <circle cx="92" cy="136" r="72" fill="#24211f" filter="url(#softShadow)"/>
    <circle cx="92" cy="136" r="51" fill="#f4be38"/>
    <circle cx="92" cy="136" r="17" fill="#d9d0bf" stroke="#24211f" stroke-width="7"/>
    <path d="M92 87v98M43 136h98M58 102l69 69M126 102l-69 69" stroke="#24211f" stroke-width="8" stroke-linecap="round" opacity="0.62"/>
    <path d="M270 119c52 4 76 24 103 50" stroke="#d54a3a" stroke-width="8" fill="none" stroke-linecap="round"/>
    <path d="M270 154c58 2 87 24 116 54" stroke="#24211f" stroke-width="8" fill="none" stroke-linecap="round"/>
  </g>
  <path d="M128 604h744" stroke="#24211f" stroke-width="8" stroke-linecap="round" opacity="0.22"/>
</svg>
