<svg xmlns="http://www.w3.org/2000/svg" viewBox="0 0 1000 750" role="img" aria-labelledby="title desc">
  <title id="title">Brace a frame result build</title>
  <desc id="desc">A tactile workbench-style result image for Brace a frame.</desc>
  <defs>
    <linearGradient id="bench" x1="0" x2="1" y1="0" y2="1">
      <stop offset="0" stop-color="#f4dfbd"/>
      <stop offset="1" stop-color="#d3a36c"/>
    </linearGradient>
    <linearGradient id="paper" x1="0" x2="0" y1="0" y2="1">
      <stop offset="0" stop-color="#fffaf0"/>
      <stop offset="1" stop-color="#f2e4cf"/>
    </linearGradient>
    <linearGradient id="metal" x1="0" x2="1">
      <stop offset="0" stop-color="#dce5e6"/>
      <stop offset="0.5" stop-color="#9eaeb2"/>
      <stop offset="1" stop-color="#eef4f4"/>
    </linearGradient>
    <filter id="softShadow" x="-20%" y="-20%" width="140%" height="150%">
      <feDropShadow dx="10" dy="12" stdDeviation="5" flood-color="#24211f" flood-opacity="0.22"/>
    </filter>
    <pattern id="grain" width="42" height="42" patternUnits="userSpaceOnUse">
      <path d="M0 12h42M18 0v42" stroke="#9b6e3f" stroke-width="2" opacity="0.08"/>
    </pattern>
  </defs>
  <rect width="1000" height="750" fill="url(#bench)"/>
  <rect width="1000" height="750" fill="url(#grain)"/>
  <circle cx="130" cy="112" r="42" fill="#315eaa" opacity="0.16"/>
  <circle cx="682" cy="134" r="32" fill="#315eaa" opacity="0.22"/>
  <path d="M76 594c194 50 424 52 846 8" stroke="#7a5633" stroke-width="18" stroke-linecap="round" opacity="0.12"/>
  
  <rect x="86" y="170" width="828" height="388" rx="18" fill="#e7cfad" filter="url(#softShadow)"/>
  <path d="M112 198h776" stroke="#b77f46" stroke-width="3" stroke-linecap="round" opacity="0.28"/>
  <path d="M108 528h784" stroke="#8f6238" stroke-width="4" stroke-linecap="round" opacity="0.18"/>
  <rect x="124" y="205" width="752" height="312" rx="22" fill="url(#paper)" opacity="0.64"/>
  
  <g transform="translate(108 286) scale(1.12)" fill="none" stroke="#24211f" stroke-width="14" stroke-linecap="round" stroke-linejoin="round" filter="url(#softShadow)">
    <path d="M0 190h430"/>
    <path d="M26 190L96 72l78 118l82-118l82 118l66-118"/>
    <path d="M96 72h308"/>
    <path d="M96 72L174 190M174 190L256 72M256 72L338 190M338 190L404 72" stroke="#315eaa"/>
    <path d="M28 206h374" stroke="#c77c38" stroke-width="22"/>
  </g>

  <g transform="translate(580 342) scale(0.46)">
    <rect x="92" y="76" width="180" height="118" rx="18" fill="#b9c4c8" filter="url(#softShadow)"/>
    <rect x="116" y="98" width="132" height="74" rx="10" fill="url(#metal)"/>
    <circle cx="92" cy="136" r="72" fill="#24211f" filter="url(#softShadow)"/>
    <circle cx="92" cy="136" r="51" fill="#f4be38"/>
    <circle cx="92" cy="136" r="17" fill="#d9d0bf" stroke="#24211f" stroke-width="7"/>
    <path d="M92 87v98M43 136h98M58 102l69 69M126 102l-69 69" stroke="#24211f" stroke-width="8" stroke-linecap="round" opacity="0.62"/>
    <path d="M270 119c52 4 76 24 103 50" stroke="#d54a3a" stroke-width="8" fill="none" stroke-linecap="round"/>
    <path d="M270 154c58 2 87 24 116 54" stroke="#24211f" stroke-width="8" fill="none" stroke-linecap="round"/>
  </g>
  <path d="M128 604h744" stroke="#24211f" stroke-width="8" stroke-linecap="round" opacity="0.22"/>
</svg>
